<svg width="133" height="144" viewBox="0 0 133 144" fill="none" xmlns="http://www.w3.org/2000/svg">
<path d="M92.4998 75.9971C62.8998 55.9971 33.8332 67.6638 22.9998 75.9971C12.9997 83.1971 7.49976 95.6638 5.99982 100.997C-2.40018 124.597 6.83315 134.164 12.4998 135.997C12.4998 135.997 78.8332 140.331 94.9998 137.997C106.5 125.664 122.1 95.9971 92.4998 75.9971Z" fill="#95D4FA"/>
<path d="M95.3431 76.5304C69.8708 55.6442 44.8575 67.8278 35.5348 76.5304C26.9292 84.0493 22.1962 97.0685 20.9055 102.638C13.6768 127.284 21.6226 137.274 26.499 139.189C26.499 139.189 81.4309 139.935 95.3431 137.498C105.239 124.618 120.815 97.4165 95.3431 76.5304Z" fill="#A5DDFF"/>
<path d="M130.937 106.469C130.937 91.8504 119.087 80 104.469 80C89.8504 80 78 91.8504 78 106.469C78 121.087 89.8504 132.937 104.469 132.937C119.087 132.937 130.937 121.087 130.937 106.469Z" fill="#95E540"/>
<path d="M116.955 102.573H109.427V95.0447C109.427 92.4859 107.353 90.4117 104.794 90.4117C102.235 90.4117 100.161 92.4859 100.161 95.0447V102.573H92.6327C90.0741 102.573 88 104.647 88 107.206C88 109.765 90.0741 111.839 92.6327 111.839H100.161V119.367C100.161 121.926 102.235 124 104.794 124C107.353 124 109.427 121.926 109.427 119.367V111.839H116.955C119.514 111.839 121.588 109.765 121.588 107.206C121.588 104.647 119.514 102.573 116.955 102.573Z" fill="white"/>
<path d="M116.955 102.573H109.427V95.0447C109.427 92.4859 107.353 90.4117 104.794 90.4117C102.235 90.4117 100.161 92.4859 100.161 95.0447V102.573H92.6327C90.0741 102.573 88 104.647 88 107.206C88 109.765 90.0741 111.839 92.6327 111.839H100.161V119.367C100.161 121.926 102.235 124 104.794 124C107.353 124 109.427 121.926 109.427 119.367V111.839H116.955C119.514 111.839 121.588 109.765 121.588 107.206C121.588 104.647 119.514 102.573 116.955 102.573Z" stroke="black" stroke-width="4" stroke-miterlimit="10" stroke-linecap="round" stroke-linejoin="round"/>
<path d="M104.5 79C100.265 78.9997 96.0875 79.9775 92.2927 81.8572C88.4978 83.7369 85.1884 86.4677 82.6224 89.8367C80.0564 93.2057 78.3033 97.1219 77.4997 101.28C76.696 105.438 76.8636 109.725 77.9894 113.808C79.1151 117.89 81.1686 121.658 83.9897 124.816C86.8108 127.974 90.3233 130.439 94.2533 132.016C98.1833 133.594 102.425 134.243 106.647 133.912C110.869 133.581 114.957 132.279 118.593 130.109C118.713 130.041 118.819 129.95 118.903 129.842C118.987 129.733 119.049 129.608 119.084 129.475C119.119 129.342 119.128 129.203 119.108 129.067C119.089 128.931 119.043 128.8 118.972 128.682C118.901 128.564 118.807 128.461 118.696 128.38C118.585 128.299 118.458 128.241 118.324 128.209C118.19 128.178 118.052 128.173 117.916 128.197C117.78 128.22 117.65 128.27 117.535 128.344C112.237 131.5 105.973 132.622 99.9097 131.501C93.8463 130.38 88.3974 127.093 84.5786 122.251C80.7598 117.41 78.8317 111.345 79.1538 105.188C79.4758 99.03 82.0259 93.1994 86.3289 88.7828C90.6318 84.3663 96.3939 81.6651 102.541 81.1827C108.688 80.7003 114.801 82.4697 119.741 86.1611C124.68 89.8524 128.108 95.2138 129.387 101.246C130.665 107.278 129.707 113.569 126.69 118.947C126.624 119.065 126.581 119.195 126.565 119.329C126.549 119.463 126.56 119.599 126.596 119.729C126.632 119.859 126.694 119.981 126.778 120.087C126.861 120.193 126.965 120.282 127.083 120.348C127.2 120.414 127.33 120.457 127.464 120.473C127.598 120.489 127.734 120.478 127.865 120.442C127.995 120.405 128.116 120.344 128.223 120.26C128.329 120.177 128.418 120.073 128.484 119.955C130.831 115.77 132.043 111.044 131.999 106.246C131.954 101.447 130.655 96.7442 128.23 92.6035C125.806 88.4628 122.34 85.0286 118.177 82.6422C114.014 80.2557 109.299 79.0001 104.5 79Z" fill="black" stroke="black" stroke-width="2"/>
<path d="M123.019 123.566C122.74 123.883 122.444 124.196 122.142 124.494C121.954 124.68 121.761 124.862 121.564 125.04C121.488 125.106 121.426 125.187 121.382 125.277C121.337 125.368 121.312 125.466 121.306 125.566C121.301 125.666 121.316 125.766 121.35 125.861C121.384 125.955 121.437 126.042 121.506 126.116C121.574 126.19 121.657 126.25 121.749 126.292C121.841 126.334 121.941 126.357 122.043 126.361C122.144 126.364 122.246 126.348 122.341 126.312C122.435 126.277 122.522 126.223 122.596 126.154C122.81 125.961 123.019 125.763 123.223 125.562C123.551 125.239 123.87 124.901 124.173 124.557C124.239 124.482 124.289 124.395 124.321 124.301C124.353 124.207 124.366 124.108 124.359 124.009C124.352 123.91 124.325 123.813 124.281 123.725C124.236 123.636 124.174 123.557 124.098 123.491C124.023 123.426 123.935 123.377 123.839 123.345C123.744 123.313 123.644 123.301 123.543 123.307C123.443 123.314 123.345 123.34 123.255 123.385C123.166 123.429 123.085 123.49 123.019 123.565V123.566Z" fill="black" stroke="black" stroke-width="2"/>
<path d="M58 63.998C74.5685 63.998 88 50.5666 88 33.998C88 17.4295 74.5685 3.99805 58 3.99805C41.4315 3.99805 28 17.4295 28 33.998C28 50.5666 41.4315 63.998 58 63.998Z" fill="#FFCDAC"/>
<path d="M3.43263 126.189C1.5361 126.189 0 124.654 0 122.76V114.309C0 97.1955 8.88622 80.7339 23.196 71.3352C39.3379 60.7365 62.019 58.6279 82.3831 65.8237C84.1724 66.4537 85.1078 68.4123 84.4727 70.1994C83.842 71.9823 81.8897 72.9209 80.0961 72.2866C61.9933 65.8923 41.1272 67.7651 26.9633 77.0652C14.5672 85.2082 6.86526 99.4798 6.86526 114.309V122.76C6.86526 124.654 5.32916 126.189 3.43263 126.189Z" fill="black"/>
<path d="M58.325 144C43.4188 144 28.5298 142.521 13.7866 139.568C11.9244 139.196 10.723 137.387 11.0963 135.531C11.4696 133.671 13.2846 132.475 15.1382 132.844C40.7156 137.966 66.7392 138.514 92.5097 134.464C94.3762 134.168 96.1397 135.445 96.4358 137.318C96.7275 139.187 95.4489 140.944 93.5781 141.236C81.8642 143.078 70.0903 143.996 58.3293 143.996L58.325 144Z" fill="black"/>
<path d="M14.4642 139.633C14.2411 139.633 14.0094 139.612 13.7863 139.565C5.79685 137.962 0 130.899 0 122.756C0 120.861 1.5361 119.327 3.43263 119.327C5.32916 119.327 6.86526 120.861 6.86526 122.756C6.86526 127.637 10.3451 131.88 15.1379 132.84C16.9958 133.213 18.2015 135.022 17.8239 136.877C17.4978 138.51 16.0647 139.633 14.4642 139.633Z" fill="black"/>
<path d="M58.1485 68.5362C55.0678 68.5362 52.0127 68.1162 49.0649 67.2934C32.1464 62.5533 21.398 45.2945 24.5989 28.0101C27.744 11.0427 43.9847 -1.47173 61.534 0.139722C78.9975 1.73831 92.6808 16.7342 92.6808 34.2758C92.6808 38.463 91.9299 42.5602 90.4539 46.4517C85.4294 59.6604 72.4454 68.5405 58.1485 68.5405V68.5362ZM58.4575 6.84695C45.3706 6.84695 33.7168 16.4771 31.3526 29.2444C28.791 43.0831 37.3854 56.8875 50.9186 60.6804C53.2656 61.3405 55.6985 61.6705 58.1442 61.6705C69.6092 61.6705 80.0101 54.5732 84.0306 44.0045C85.2105 40.8974 85.8112 37.6187 85.8112 34.2673C85.8112 20.2357 74.8697 8.23553 60.8989 6.95409C60.0837 6.87695 59.2684 6.84266 58.4532 6.84266L58.4575 6.84695Z" fill="black"/>
<path d="M92.6211 78.3038C91.9475 78.3038 91.2609 78.1066 90.6688 77.6952C87.3992 75.428 83.8464 73.6109 80.1006 72.2865C78.3113 71.6565 77.3759 69.698 78.011 67.9108C78.6417 66.1236 80.5983 65.185 82.3876 65.8193C86.7084 67.3451 90.8104 69.4451 94.5863 72.0551C96.1396 73.1351 96.53 75.2694 95.4487 76.8295C94.7794 77.7895 93.711 78.3038 92.6254 78.3038H92.6211Z" fill="black"/>
</svg>
