<svg width="26" height="26" viewBox="0 0 26 26" fill="none" xmlns="http://www.w3.org/2000/svg">
<path d="M13 25C19.6274 25 25 19.6274 25 13C25 6.37258 19.6274 1 13 1C6.37258 1 1 6.37258 1 13C1 19.6274 6.37258 25 13 25Z" stroke="black" stroke-width="2" stroke-linecap="round" stroke-linejoin="round"/>
<path d="M9.50586 9.39951C9.78798 8.59751 10.3448 7.92124 11.0778 7.49047C11.8108 7.0597 12.6725 6.90224 13.5105 7.04597C14.3484 7.18969 15.1084 7.62534 15.656 8.27575C16.2035 8.92615 16.5031 9.74934 16.5019 10.5995C16.5019 12.9995 12.9019 14.1995 12.9019 14.1995" stroke="black" stroke-width="2" stroke-linecap="round" stroke-linejoin="round"/>
<path d="M13 19H13.0115" stroke="black" stroke-width="2" stroke-linecap="round" stroke-linejoin="round"/>
</svg>
