<svg width="144" height="144" viewBox="0 0 144 144" fill="none" xmlns="http://www.w3.org/2000/svg">
<path d="M105.731 13.0254V122.247H26.269V130.931H114.414V13.0254H105.731Z" fill="#9EA3AD"/>
<path d="M39.9928 4.45093L17.6946 26.7491V122.356H105.84V4.45093H39.9928Z" fill="white"/>
<path d="M68.4873 113.193C85.9234 113.193 100.058 99.0578 100.058 81.6217C100.058 64.1856 85.9234 50.0508 68.4873 50.0508C51.0512 50.0508 36.9164 64.1856 36.9164 81.6217C36.9164 99.0578 51.0512 113.193 68.4873 113.193Z" fill="#FF5046"/>
<path d="M84.4363 97.5928C75.6436 106.386 61.3309 106.386 52.5381 97.5928C43.7454 88.8001 43.7454 74.4874 52.5381 65.6946C61.3309 56.9019 75.6436 56.9019 84.4363 65.6946C93.2509 74.4656 93.2509 88.7783 84.4363 97.5928Z" fill="#FF5046"/>
<path d="M64.5 83.2931C64.5 85.5214 66.3844 87.1875 68.5312 87.1875C70.6781 87.1875 72.5625 85.5214 72.5625 83.2931V68.3944C72.5625 66.1661 70.6781 64.5 68.5312 64.5C66.3844 64.5 64.5 66.1661 64.5 68.3944V83.2931Z" fill="white" stroke="black" stroke-width="3"/>
<path d="M68.5312 99.5625C70.7577 99.5625 72.5625 97.7577 72.5625 95.5312C72.5625 93.3048 70.7577 91.5 68.5312 91.5C66.3048 91.5 64.5 93.3048 64.5 95.5312C64.5 97.7577 66.3048 99.5625 68.5312 99.5625Z" fill="white" stroke="black" stroke-width="3"/>
<path d="M97.7454 105.622L93.2727 101.149C92.5091 102.109 91.7018 103.047 90.8073 103.942C89.9127 104.836 88.9745 105.644 88.0145 106.407L92.4873 110.88C91.9854 113.149 92.5963 115.593 94.3418 117.36L114.48 137.498C117.207 140.226 121.636 140.226 124.364 137.498C127.091 134.771 127.091 130.342 124.364 127.615L104.225 107.476C102.458 105.731 100.015 105.12 97.7454 105.622Z" fill="black"/>
<path d="M39.8836 26.64V4.3418L17.5854 26.64H39.8836Z" fill="#9EA3AD"/>
<path d="M85.5709 64.5164C81.0109 59.9564 74.9236 57.4255 68.4436 57.4255C61.9636 57.4255 55.8764 59.9346 51.3164 64.5164C46.7564 69.0983 44.2255 75.1637 44.2255 81.6437C44.2255 88.1237 46.7346 94.211 51.3164 98.771C55.8764 103.331 61.9636 105.862 68.4436 105.862C74.9236 105.862 81.0109 103.353 85.5709 98.771C94.9964 89.3237 94.9964 73.9637 85.5709 64.5164ZM83.2582 96.4583C79.3091 100.407 74.0509 102.589 68.4436 102.589C62.8364 102.589 57.5782 100.407 53.6291 96.4583C49.68 92.5092 47.4982 87.251 47.4982 81.6437C47.4982 76.0364 49.68 70.7783 53.6291 66.8292C57.5782 62.8801 62.8364 60.6983 68.4436 60.6983C74.0509 60.6983 79.3091 62.8801 83.2582 66.8292C91.4182 74.9892 91.4182 88.2764 83.2582 96.4583Z" fill="black"/>
<path d="M125.542 126.545L105.382 106.364C103.505 104.487 100.909 103.614 98.2909 103.898L95.3891 100.996C104.727 88.0145 103.593 69.7963 91.9418 58.1236C78.9818 45.1636 57.9055 45.1636 44.9455 58.1236C31.9855 71.0836 31.9855 92.1599 44.9455 105.12C51.4255 111.6 59.9346 114.829 68.4436 114.829C75.2509 114.829 82.0582 112.713 87.8182 108.567L90.72 111.469C90.4146 114.087 91.3091 116.684 93.1855 118.538L113.345 138.72C115.025 140.4 117.229 141.251 119.455 141.251C121.658 141.251 123.884 140.4 125.564 138.72C127.2 137.084 128.095 134.924 128.095 132.611C128.073 130.342 127.156 128.16 125.542 126.545ZM47.2364 102.829C35.5636 91.1563 35.5636 72.1308 47.2364 60.4581C53.0836 54.6108 60.7418 51.6872 68.4218 51.6872C76.1018 51.6872 83.76 54.6108 89.6073 60.4581C101.28 72.1308 101.28 91.1563 89.6073 102.829C77.9346 114.502 58.9309 114.502 47.2364 102.829ZM123.229 136.429C121.135 138.524 117.731 138.524 115.658 136.429L95.4982 116.269C94.2109 114.982 93.6655 113.105 94.08 111.294C94.2109 110.749 94.0364 110.182 93.6436 109.789L90.4364 106.582C90.48 106.538 90.5018 106.494 90.5237 106.451C91.0037 106.014 91.5055 105.622 91.9636 105.142C92.4218 104.684 92.8146 104.204 93.2509 103.724C93.2946 103.68 93.36 103.658 93.3818 103.614L96.5891 106.822C96.9818 107.214 97.5491 107.389 98.0946 107.258C99.9055 106.844 101.76 107.389 103.069 108.676L123.229 128.858C124.233 129.862 124.8 131.214 124.8 132.654C124.8 134.073 124.233 135.425 123.229 136.429Z" fill="black"/>
<path d="M52.1891 15.709H93.5346C94.4291 15.709 95.1709 14.9672 95.1709 14.0726C95.1709 13.1781 94.4291 12.4363 93.5346 12.4363H52.1891C51.2946 12.4363 50.5527 13.1781 50.5527 14.0726C50.5527 14.9672 51.2946 15.709 52.1891 15.709Z" fill="black"/>
<path d="M93.5563 21.0981H52.1672C51.2727 21.0981 50.5309 21.84 50.5309 22.7345C50.5309 23.6291 51.2727 24.3709 52.1672 24.3709H93.5563C94.4509 24.3709 95.1927 23.6291 95.1927 22.7345C95.1927 21.84 94.4509 21.0981 93.5563 21.0981Z" fill="black"/>
<path d="M93.5564 29.8474H71.8255C70.9309 29.8474 70.1891 30.5892 70.1891 31.4838C70.1891 32.3783 70.9309 33.1201 71.8255 33.1201H93.5564C94.4509 33.1201 95.1927 32.3783 95.1927 31.4838C95.1927 30.5892 94.4509 29.8474 93.5564 29.8474Z" fill="black"/>
<path d="M93.5564 38.5745H71.8255C70.9309 38.5745 70.1891 39.3163 70.1891 40.2108C70.1891 41.1054 70.9309 41.8472 71.8255 41.8472H93.5564C94.4509 41.8472 95.1927 41.1054 95.1927 40.2108C95.1927 39.3163 94.4509 38.5745 93.5564 38.5745Z" fill="black"/>
<path d="M98.7491 129.469H27.9054V124.058H90.0654C90.96 124.058 91.7018 123.316 91.7018 122.422C91.7018 121.527 90.96 120.785 90.0654 120.785H19.2V28.32H39.8836C40.7782 28.32 41.52 27.5782 41.52 26.6837V6.00002H104.182V100.691C104.182 101.585 104.924 102.327 105.818 102.327C106.713 102.327 107.455 101.585 107.455 100.691V14.6837H112.865V108.567C112.865 109.462 113.607 110.204 114.502 110.204C115.396 110.204 116.138 109.462 116.138 108.567V13.0473C116.138 12.1528 115.396 11.4109 114.502 11.4109H107.455V4.36366C107.455 3.46911 106.713 2.72729 105.818 2.72729H39.9054C39.4691 2.72729 39.0545 2.90184 38.7491 3.2073L16.4072 25.5273C16.1018 25.8328 15.9272 26.2473 15.9272 26.6837V122.4C15.9272 123.295 16.6691 124.036 17.5636 124.036H24.6109V131.084C24.6109 131.978 25.3527 132.72 26.2472 132.72H98.7272C99.6218 132.72 100.364 131.978 100.364 131.084C100.364 130.189 99.6436 129.469 98.7491 129.469ZM21.5127 25.0473L38.2472 8.31275V25.0473H21.5127Z" fill="black"/>
</svg>
