<svg width="32" height="36" viewBox="0 0 32 36" fill="none" xmlns="http://www.w3.org/2000/svg">
<g clip-path="url(#clip0_542_85829)">
<path d="M14.3588 35.3805C13.6389 35.0384 12.9294 34.6621 12.4976 34.0073C12.1391 33.4646 11.8793 32.8656 11.5447 32.2331C10.1347 32.2381 8.61506 32.2432 7.09549 32.249C5.62154 32.2543 4.14783 32.2674 2.67436 32.2635C1.64743 32.2609 0.922716 31.6306 0.896047 30.7387C0.882267 30.2778 1.08002 29.8959 1.42168 29.5697C2.474 28.5643 3.33156 27.4307 3.99981 26.1723C5.09796 24.1052 5.48795 21.9104 5.4377 19.6192C5.39755 17.7932 5.34204 15.9619 5.43967 14.1394C5.62524 10.6789 7.38335 8.04298 10.5639 6.24819C11.1436 5.92157 11.7942 5.70081 12.4227 5.45511C12.619 5.37852 12.6904 5.29804 12.6897 5.09687C12.6865 4.32901 12.6626 3.55743 12.728 2.79348C12.8461 1.426 14.3783 0.264437 15.8474 0.37755C17.5872 0.512038 18.7448 1.65543 18.7837 3.28524C18.7966 3.81977 18.818 4.35622 18.7845 4.88911C18.7624 5.24389 18.9052 5.39041 19.2575 5.49753C20.7674 5.95531 22.0725 6.73786 23.1787 7.78977C25.2181 9.7273 26.1864 12.0693 26.1996 14.773C26.2105 16.9448 26.1858 19.1203 26.3129 21.287C26.4511 23.6425 27.3467 25.7929 28.8235 27.7138C29.3451 28.3925 29.9762 28.9968 30.5366 29.6505C31.2443 30.476 30.8858 31.6889 29.8241 32.0498C29.5726 32.1349 29.285 32.1579 29.0135 32.16C26.1982 32.1778 23.3819 32.1907 20.5668 32.1888C20.2427 32.1886 20.1298 32.2779 20.0542 32.5724C19.5586 34.5185 17.6506 35.7769 15.5064 35.6004C15.4499 35.5954 15.3911 35.6125 15.3335 35.6197L14.3581 35.3812L14.3588 35.3805ZM18.3728 6.43487C16.1149 5.91274 14.0981 5.97806 12.1766 6.78905C8.85878 8.18923 6.97968 10.62 6.71694 13.9925C6.56198 15.9837 6.67078 17.9942 6.69489 19.9963C6.7284 22.7449 6.05447 25.314 4.54933 27.6849C3.93187 28.6571 3.18694 29.5385 2.35973 30.3645C2.2445 30.4794 2.15771 30.731 2.21685 30.8521C2.27841 30.9773 2.53303 31.0217 2.70495 31.0988C2.72345 31.1068 2.75199 31.0947 2.77555 31.0941C11.3895 31.0603 20.0027 31.028 28.6163 30.9857C28.9494 30.9842 29.3958 31.1569 29.5838 30.7546C29.7789 30.3359 29.3239 30.1514 29.0901 29.913C26.7432 27.5122 25.3253 24.7093 25.0575 21.4772C24.8991 19.5622 24.9653 17.6314 24.9428 15.7072C24.929 14.5599 24.954 13.4109 24.5883 12.2967C23.5882 9.25065 21.42 7.30297 18.372 6.43489L18.3728 6.43487ZM13.9225 5.01415C15.1164 4.8531 16.2099 4.81647 17.3061 4.97601C17.3634 4.98446 17.5026 4.85549 17.5036 4.78957C17.5097 4.17875 17.5362 3.56457 17.4725 2.95908C17.3897 2.17485 16.6555 1.60998 15.7635 1.56491C14.9956 1.52586 14.1819 2.04057 14.0564 2.77632C13.934 3.49215 13.9629 4.2303 13.9225 5.01415Z" fill="black"/>
<path d="M18.3727 6.43478C21.4199 7.30217 23.5881 9.25056 24.5889 12.2966C24.9546 13.4108 24.9297 14.5605 24.9434 15.7071C24.966 17.6313 24.9005 19.562 25.0581 21.4771C25.3252 24.7092 26.7432 27.5129 29.0907 29.9129C29.3238 30.1513 29.7796 30.3358 29.5844 30.7545C29.3972 31.1568 28.9509 30.9841 28.617 30.9856C20.0033 31.0279 11.3901 31.0595 2.7762 31.094C2.75264 31.0946 2.7241 31.1067 2.7056 31.0987C2.53368 31.0216 2.27906 30.9772 2.2175 30.852C2.15836 30.7309 2.24591 30.4793 2.36038 30.3644C3.18681 29.5377 3.93252 28.657 4.54998 27.6848C6.05512 25.3139 6.72981 22.7448 6.69554 19.9962C6.67069 17.9949 6.56263 15.9836 6.71759 13.9924C6.98033 10.6199 8.85946 8.18983 12.1773 6.78894C14.098 5.97798 16.1155 5.91334 18.3735 6.43477L18.3727 6.43478Z" fill="#A5DDFF"/>
<path d="M13.9223 5.01437C13.9628 4.2298 13.9339 3.49165 14.0562 2.77653C14.1826 2.04076 14.9955 1.52608 15.7634 1.56513C16.6554 1.61019 17.3896 2.17506 17.4724 2.95929C17.5361 3.56478 17.5089 4.17969 17.5035 4.78979C17.5032 4.85568 17.3633 4.98467 17.306 4.97622C16.2097 4.81598 15.1163 4.8526 13.9223 5.01437Z" fill="#BAEE83"/>
</g>
<defs>
<clipPath id="clip0_542_85829">
<rect width="29.9984" height="35.2445" fill="white" transform="matrix(0.999669 -0.02571 0.0298876 0.999553 0 0.771484)"/>
</clipPath>
</defs>
</svg>
